<svg height="32" viewBox="0 0 32 32" width="32" xmlns="http://www.w3.org/2000/svg"><path d="m4.65544872 26.9589844c2.85185185-1.2564103 5.28988604-3.1011396 7.31410258-5.5341881 2.0242165-2.4330484 3.0363248-4.8461538 3.0363248-7.2393162 0-2.5726496-.5883191-4.58689459-1.7649573-6.04273504-1.1766382-1.45584046-2.8618234-2.18376068-5.05555555-2.18376068-1.3960114 0-2.60754986.47863247-3.63461539 1.43589743-1.02706552.95726496-1.54059829 2.07407407-1.54059829 3.35042739 0 .6182336.09472935 1.2165242.28418804 1.7948718.18945869.5783475.51353276 1.1068376.97222222 1.58547.47863248.4985755 1.10683761.8874644 1.88461538 1.1666667.77777778.2792023 1.78490029.4188034 3.02136753.4188034h1.67521366c-.1994302 2.0740741-.93732193 3.8390314-2.2136752 5.2948718-1.27635328 1.4558405-3.04131054 2.7321938-5.2948718 3.8290599zm14.74786328 0c2.8518518-1.2564103 5.289886-3.1011396 7.3141025-5.5341881 2.0242166-2.4330484 3.0363248-4.8461538 3.0363248-7.2393162 0-2.5726496-.5883191-4.58689459-1.7649572-6.04273504-1.1766382-1.45584046-2.8618234-2.18376068-5.0555556-2.18376068-1.3960114 0-2.6075499.47863247-3.6346154 1.43589743s-1.5405983 2.07407407-1.5405983 3.35042739c0 .6182336.0947294 1.2165242.2841881 1.7948718.1894586.5783475.5135327 1.1068376.9722222 1.58547.4786325.4985755 1.1068376.8874644 1.8846154 1.1666667.7777777.2792023 1.7849002.4188034 3.0213675.4188034h1.6752137c-.1994302 2.0740741-.937322 3.8390314-2.2136753 5.2948718-1.2763532 1.4558405-3.0413105 2.7321938-5.2948718 3.8290599z" fill="#3a332d"/></svg>